<mxfile host="app.diagrams.net" modified="2024-02-07T18:58:49.874Z" agent="Mozilla/5.0 (Windows NT 10.0; Win64; x64) AppleWebKit/537.36 (KHTML, like Gecko) Chrome/121.0.0.0 Safari/537.36" etag="pnZeXs57exAyXYs8hWmb" version="23.1.0" type="github">
  <diagram name="Page-1" id="UHAGqtnOZLy00CnhmZnk">
    <mxGraphModel dx="792" dy="1130" grid="1" gridSize="10" guides="1" tooltips="1" connect="1" arrows="1" fold="1" page="1" pageScale="1" pageWidth="850" pageHeight="1100" math="0" shadow="0">
      <root>
        <mxCell id="0" />
        <mxCell id="1" parent="0" />
        <mxCell id="w-VdQCyDQJL-NqUyVGXv-3" value="" style="edgeStyle=orthogonalEdgeStyle;rounded=0;orthogonalLoop=1;jettySize=auto;html=1;" edge="1" parent="1" source="w-VdQCyDQJL-NqUyVGXv-1" target="w-VdQCyDQJL-NqUyVGXv-2">
          <mxGeometry relative="1" as="geometry" />
        </mxCell>
        <mxCell id="w-VdQCyDQJL-NqUyVGXv-1" value="" style="rounded=1;whiteSpace=wrap;html=1;" vertex="1" parent="1">
          <mxGeometry x="290" y="120" width="120" height="60" as="geometry" />
        </mxCell>
        <mxCell id="w-VdQCyDQJL-NqUyVGXv-2" value="Initialize user input&amp;nbsp;" style="whiteSpace=wrap;html=1;rounded=1;" vertex="1" parent="1">
          <mxGeometry x="290" y="220" width="120" height="60" as="geometry" />
        </mxCell>
      </root>
    </mxGraphModel>
  </diagram>
</mxfile>
